<?xml version="1.0" standalone="no"?>
<svg viewBox="0 0 200 200" xmlns="http://www.w3.org/2000/svg">
  <path fill="#00072D" d="M36.1,-67.4C46.4,-56.6,53.9,-46.1,63.8,-34.9C73.7,-23.7,86,-11.8,85.5,-0.3C85,11.3,71.7,22.5,62.8,35.4C53.9,48.3,49.3,62.9,39.6,72.7C29.8,82.5,14.9,87.6,0.9,86C-13.1,84.4,-26.1,76.1,-40.3,68.9C-54.4,61.6,-69.7,55.3,-78.8,44C-87.8,32.7,-90.7,16.4,-89.3,0.8C-87.9,-14.8,-82.3,-29.5,-74.3,-42.6C-66.3,-55.8,-55.9,-67.2,-43.1,-76.5C-30.3,-85.8,-15.2,-92.8,-1.1,-90.9C12.9,-89,25.9,-78.1,36.1,-67.4Z" transform="translate(100 100)" />
</svg>
