<?xml version="1.0" standalone="no"?>
<svg viewBox="0 0 200 200" xmlns="http://www.w3.org/2000/svg">
  <path fill="#00072D" d="M42.5,-73.5C55.6,-66.2,66.8,-55.6,74.7,-42.8C82.7,-30.1,87.2,-15,86.5,-0.4C85.7,14.1,79.6,28.3,72.4,42.3C65.2,56.4,56.9,70.3,44.7,76C32.4,81.7,16.2,79.1,1.1,77.2C-14.1,75.4,-28.2,74.3,-41.2,69.1C-54.3,63.9,-66.4,54.6,-75.6,42.4C-84.8,30.2,-91.1,15.1,-89.8,0.7C-88.6,-13.7,-79.9,-27.4,-70.5,-39.3C-61.2,-51.2,-51.2,-61.4,-39.4,-69.4C-27.5,-77.3,-13.8,-83.1,0.5,-84C14.8,-84.8,29.5,-80.8,42.5,-73.5Z" transform="translate(100 100)" />
</svg>
