<?xml version="1.0" standalone="no"?>
<svg viewBox="0 0 200 200" xmlns="http://www.w3.org/2000/svg">
  <path fill="#00072D" d="M41.8,-71.3C51.9,-66.7,56.1,-50.8,62,-37C67.8,-23.2,75.1,-11.6,73,-1.2C70.9,9.1,59.2,18.3,51.8,29.4C44.5,40.5,41.5,53.6,33.6,63.8C25.6,74,12.8,81.3,2.1,77.7C-8.6,74,-17.2,59.3,-29.2,51.5C-41.2,43.6,-56.7,42.7,-68.3,35.2C-80,27.8,-87.7,13.9,-87.6,0.1C-87.5,-13.8,-79.5,-27.5,-71.2,-40.7C-62.9,-53.8,-54.2,-66.3,-42.2,-69.8C-30.3,-73.4,-15.2,-68.1,0.4,-68.7C15.9,-69.4,31.8,-75.9,41.8,-71.3Z" transform="translate(100 100)" />
</svg>
