<?xml version="1.0" standalone="no"?>
<svg viewBox="0 0 200 200" xmlns="http://www.w3.org/2000/svg">
  <path fill="#00072D" d="M43.3,-70.8C52.9,-61.3,55.2,-43.7,59.9,-28.7C64.7,-13.7,72,-1.1,70.8,10.5C69.6,22.2,60,32.9,50.9,45C41.8,57.2,33.3,70.7,20.3,78.9C7.4,87.1,-9.9,90,-24.2,84.7C-38.4,79.5,-49.6,66.1,-58.5,52.5C-67.3,39,-73.9,25.3,-77.1,10.4C-80.3,-4.5,-80.1,-20.5,-75,-35.4C-70,-50.2,-59.9,-63.9,-46.6,-71.7C-33.2,-79.5,-16.6,-81.5,0.1,-81.7C16.9,-81.9,33.8,-80.3,43.3,-70.8Z" transform="translate(100 100)" />
</svg>
